<svg width="2150" height="1664" viewBox="0 0 2150 1664" fill="none" xmlns="http://www.w3.org/2000/svg">
<rect x="25" y="64" width="2100" height="1500" rx="100" fill="white" stroke="black"/>
<path opacity="0.8" d="M1314 222C1314 194.386 1291.61 172 1264 172H771.474C728.935 172 687.505 185.563 653.201 210.719L554.73 282.932C545.593 289.632 537.042 297.096 529.17 305.244L375.684 464.102C352.911 487.672 336.279 516.479 327.252 547.986L137.953 1208.71C134.667 1220.18 133 1232.05 133 1243.99V1243.99C133 1278.52 146.948 1311.6 171.681 1335.7L259.489 1421.29C279.693 1440.98 306.79 1452 335.003 1452V1452C363.213 1452 390.307 1440.98 410.51 1421.29L555.554 1279.95C568.287 1267.54 584.099 1258.75 601.36 1254.49L776.608 1211.19C808.388 1203.34 841.589 1217.01 858.632 1244.96L875.769 1273.06C893.923 1302.83 926.277 1321 961.148 1321H1187.66C1223.18 1321 1256.02 1302.17 1273.97 1271.52L1288.74 1246.27C1305.51 1217.63 1339.1 1203.42 1371.33 1211.32L1547.67 1254.54C1564.91 1258.77 1580.72 1267.51 1593.47 1279.87L1739.47 1421.43C1759.69 1441.04 1786.75 1452 1814.92 1452V1452C1843.18 1452 1870.33 1440.96 1890.57 1421.23L1978.32 1335.7C2003.05 1311.6 2017 1278.52 2017 1243.99V1243.99C2017 1232.05 2015.33 1220.18 2012.05 1208.71L1822.67 547.73C1813.69 516.386 1797.19 487.712 1774.59 464.207L1641.86 326.146C1623.85 307.408 1594.48 305.597 1574.3 321.98L1421.77 445.817C1412.86 453.052 1401.74 457 1390.26 457H1364C1336.39 457 1314 434.614 1314 407V222Z" fill="#E89595" stroke="black"/>
<path d="M430.88 525.219L481.239 581.503C484.759 585.436 484.615 591.428 480.911 595.189L361.412 716.484C357.578 720.376 357.577 726.625 361.409 730.518L413.974 783.91C416.467 786.443 417.429 790.109 416.5 793.54L354.578 1022.17C353.607 1025.76 354.701 1029.58 357.419 1032.11L435.234 1104.5C437.598 1106.7 440.877 1107.62 444.04 1106.97L686.49 1057.62C689.912 1056.93 693.448 1058.06 695.821 1060.62L733.447 1101.24C735.093 1103.02 737.328 1104.14 739.736 1104.39L769.177 1107.49C772.223 1107.81 775.247 1106.72 777.385 1104.53L867.661 1011.91C869.481 1010.05 870.5 1007.54 870.5 1004.93V978.772C870.5 976.043 869.385 973.433 867.414 971.547L785.107 892.784C778.451 886.415 783.219 875.196 792.425 875.568L860.667 878.325C863.432 878.437 866.118 877.398 868.089 875.457L948.982 795.765C955.303 789.538 966 794.016 966 802.889V868.5C966 874.023 961.523 878.5 956 878.5H937C931.477 878.5 927 882.977 927 888.5V1243C927 1248.52 931.477 1253 937 1253H1214C1219.52 1253 1224 1248.52 1224 1243V888.5C1224 882.977 1219.52 878.5 1214 878.5H1195C1189.48 878.5 1185 874.023 1185 868.5V803.316C1185 794.382 1195.82 789.932 1202.11 796.28L1280.8 875.776C1282.54 877.53 1284.86 878.58 1287.33 878.724L1354.47 882.652C1363.2 883.164 1367.11 893.86 1360.77 899.887L1290.76 966.353C1289.29 967.751 1288.28 969.564 1287.86 971.551L1281.11 1003.7C1280.42 1007.01 1281.44 1010.44 1283.83 1012.83L1374.29 1103.29C1376.33 1105.33 1379.15 1106.39 1382.03 1106.2L1411.44 1104.24C1413.74 1104.08 1415.92 1103.14 1417.61 1101.56L1458.39 1063.35C1460.94 1060.96 1464.56 1060.08 1467.92 1061.02L1687.37 1122.42C1690.85 1123.4 1694.58 1122.42 1697.13 1119.87L1794.85 1022.15C1797.41 1019.59 1798.39 1015.84 1797.4 1012.35L1735.52 794.348C1734.57 791.022 1735.41 787.445 1737.74 784.888L1788.12 729.516C1791.7 725.582 1791.57 719.537 1787.83 715.755L1670.49 597.071C1666.62 593.159 1666.64 586.859 1670.53 582.969L1714.57 538.929C1716.45 537.054 1717.5 534.51 1717.5 531.858V493.109C1717.5 490.476 1716.46 487.95 1714.61 486.078L1632.94 403.469C1631.06 401.569 1628.5 400.5 1625.82 400.5H1586.59C1583.97 400.5 1581.45 401.529 1579.58 403.366L1471.78 509.257C1470.61 510.401 1469.18 511.243 1467.61 511.708L1419.5 526L1334.83 541.084C1333.3 541.358 1331.72 541.268 1330.23 540.823L1271.03 523.2C1268.45 522.433 1266.29 520.659 1265.04 518.28L1254.95 499.149C1253.42 496.239 1250.55 494.269 1247.28 493.883L1214.83 490.044C1209.79 489.449 1206 485.182 1206 480.113V467C1206 464.239 1208.24 462 1211 462H1258.5C1264.02 462 1268.5 457.523 1268.5 452V230C1268.5 224.477 1264.02 220 1258.5 220H756C750.477 220 746 224.477 746 230V451C746 456.523 750.477 461 756 461H785C790.523 461 795 465.477 795 471V501.723C795 505.561 792.804 509.06 789.348 510.729L741.08 534.03C738.487 535.282 735.48 535.355 732.829 534.231L659.938 503.322C658.66 502.78 657.509 501.978 656.558 500.967L564.606 403.207C563.55 402.084 562.248 401.221 560.803 400.684L534.066 390.753C530.375 389.382 526.223 390.305 523.459 393.111L433.53 484.43C431.895 486.091 430.891 488.271 430.692 490.593L428.369 517.697C428.134 520.443 429.042 523.165 430.88 525.219Z" fill="#FAEFEF" stroke="black"/>
<rect x="1254" y="417" width="145" height="127" transform="rotate(-90 1254 417)" fill="#A0A0A0" stroke="black"/>
<circle cx="1282" cy="1086" r="14.5" fill="#07B5FF" stroke="black"/>
<circle cx="866" cy="1086" r="14.5" fill="#07B5FF" stroke="black"/>
<circle cx="356" cy="1116" r="14.5" fill="#07B5FF" stroke="black"/>
<circle cx="1795" cy="1116" r="14.5" fill="#07B5FF" stroke="black"/>
<circle cx="1768" cy="593" r="14.5" fill="#07B5FF" stroke="black"/>
<circle cx="383" cy="593" r="14.5" fill="#07B5FF" stroke="black"/>
<circle cx="678" cy="343" r="14.5" fill="#07B5FF" stroke="black"/>
</svg>
