<svg width="2150" height="1664" viewBox="0 0 2150 1664" fill="none" xmlns="http://www.w3.org/2000/svg">
<rect x="25" y="64" width="2100" height="1500" rx="100" fill="white" stroke="black"/>
<path opacity="0.8" d="M1314 222C1314 194.386 1291.61 172 1264 172H771.474C728.935 172 687.505 185.563 653.201 210.719L554.73 282.932C545.593 289.632 537.042 297.096 529.17 305.244L375.684 464.102C352.911 487.672 336.279 516.479 327.252 547.986L137.953 1208.71C134.667 1220.18 133 1232.05 133 1243.99V1243.99C133 1278.52 146.948 1311.6 171.681 1335.7L259.489 1421.29C279.693 1440.98 306.79 1452 335.003 1452V1452C363.213 1452 390.307 1440.98 410.51 1421.29L555.554 1279.95C568.287 1267.54 584.099 1258.75 601.36 1254.49L776.608 1211.19C808.388 1203.34 841.589 1217.01 858.632 1244.96L875.769 1273.06C893.923 1302.83 926.277 1321 961.148 1321H1187.66C1223.18 1321 1256.02 1302.17 1273.97 1271.52L1288.74 1246.27C1305.51 1217.63 1339.1 1203.42 1371.33 1211.32L1547.67 1254.54C1564.91 1258.77 1580.72 1267.51 1593.47 1279.87L1739.47 1421.43C1759.69 1441.04 1786.75 1452 1814.92 1452V1452C1843.18 1452 1870.33 1440.96 1890.57 1421.23L1978.32 1335.7C2003.05 1311.6 2017 1278.52 2017 1243.99V1243.99C2017 1232.05 2015.33 1220.18 2012.05 1208.71L1822.67 547.73C1813.69 516.386 1797.19 487.712 1774.59 464.207L1641.86 326.146C1623.85 307.408 1594.48 305.597 1574.3 321.98L1421.77 445.817C1412.86 453.052 1401.74 457 1390.26 457H1364C1336.39 457 1314 434.614 1314 407V222Z" fill="#E89595" stroke="black"/>
<circle cx="1282" cy="1086" r="14.5" fill="#07B5FF" stroke="black"/>
<circle cx="866" cy="1086" r="14.5" fill="#07B5FF" stroke="black"/>
<circle cx="356" cy="1116" r="14.5" fill="#07B5FF" stroke="black"/>
<circle cx="1795" cy="1116" r="14.5" fill="#07B5FF" stroke="black"/>
<circle cx="1768" cy="593" r="14.5" fill="#07B5FF" stroke="black"/>
<circle cx="383" cy="593" r="14.5" fill="#07B5FF" stroke="black"/>
<circle cx="678" cy="343" r="14.5" fill="#07B5FF" stroke="black"/>
</svg>
