<svg width="2150" height="1664" viewBox="0 0 2150 1664" fill="none" xmlns="http://www.w3.org/2000/svg">
<rect x="25" y="64" width="2100" height="1500" rx="100" fill="white" stroke="black"/>
<path opacity="0.8" d="M1314 222C1314 194.386 1291.61 172 1264 172H771.474C728.935 172 687.505 185.563 653.201 210.719L554.73 282.932C545.593 289.632 537.042 297.096 529.17 305.244L375.684 464.102C352.911 487.672 336.279 516.479 327.252 547.986L137.953 1208.71C134.667 1220.18 133 1232.05 133 1243.99V1243.99C133 1278.52 146.948 1311.6 171.681 1335.7L259.489 1421.29C279.693 1440.98 306.79 1452 335.003 1452V1452C363.213 1452 390.307 1440.98 410.51 1421.29L555.554 1279.95C568.287 1267.54 584.099 1258.75 601.36 1254.49L776.608 1211.19C808.388 1203.34 841.589 1217.01 858.632 1244.96L875.769 1273.06C893.923 1302.83 926.277 1321 961.148 1321H1187.66C1223.18 1321 1256.02 1302.17 1273.97 1271.52L1288.74 1246.27C1305.51 1217.63 1339.1 1203.42 1371.33 1211.32L1547.67 1254.54C1564.91 1258.77 1580.72 1267.51 1593.47 1279.87L1739.47 1421.43C1759.69 1441.04 1786.75 1452 1814.92 1452V1452C1843.18 1452 1870.33 1440.96 1890.57 1421.23L1978.32 1335.7C2003.05 1311.6 2017 1278.52 2017 1243.99V1243.99C2017 1232.05 2015.33 1220.18 2012.05 1208.71L1822.67 547.73C1813.69 516.386 1797.19 487.712 1774.59 464.207L1641.86 326.146C1623.85 307.408 1594.48 305.597 1574.3 321.98L1421.77 445.817C1412.86 453.052 1401.74 457 1390.26 457H1364C1336.39 457 1314 434.614 1314 407V222Z" fill="#E89595" stroke="black"/>
<rect x="1254" y="417" width="145" height="127" transform="rotate(-90 1254 417)" fill="#A0A0A0" stroke="black"/>
<rect x="925" y="880" width="301" height="376" fill="#898CD6" stroke="black" stroke-width="20"/>
<path d="M1100.01 518.011L1092 518.011L1092 549.011H1100.01L1100.01 607.009H1092L1092 638.009H1100.01L1100.01 648.008H1240V638.009H1248.01V607.009L1240 607.009V549.011L1248.01 549.011L1248.01 518.011L1240.01 518.004V508.005L1100 508.005L1100.01 518.011Z" fill="#C4C4C4" stroke="black"/>
<path d="M910.005 518.011L902 518.011L902 549.011H910.005L910.005 607.009H902L902 638.009H910.005L910.005 648.008H1050V638.009H1058.01V607.009L1050 607.009V549.011L1058.01 549.011L1058.01 518.011L1050.01 518.004V508.005L909.998 508.005L910.005 518.011Z" fill="#C4C4C4" stroke="black"/>
<path d="M1005.01 728.011L997 728.011L997 759.011H1005.01L1005.01 817.009H997L997 848.009H1005.01L1005.01 858.008H1145V848.009H1153.01V817.009L1145 817.009V759.011L1153.01 759.011L1153.01 728.011L1145.01 728.004V718.005L1005 718.005L1005.01 728.011Z" fill="#C4C4C4" stroke="black"/>
<g clip-path="url(#clip0)">
<path d="M535.626 419.438L529.965 413.778L508.045 435.698L513.705 441.358L472.694 482.369L467.034 476.709L445.114 498.629L450.774 504.289L443.704 511.36L542.696 610.352L549.766 603.282L555.426 608.942L577.346 587.021L571.686 581.361L612.697 540.35L618.357 546.01L640.278 524.09L634.628 518.43L641.698 511.36L542.696 412.358L535.626 419.438Z" fill="#C4C4C4" stroke="black"/>
</g>
<g clip-path="url(#clip1)">
<path d="M478.45 630.963L472.79 625.303L450.87 647.223L456.53 652.883L415.519 693.894L409.859 688.234L387.938 710.154L393.598 715.815L386.528 722.885L485.52 821.877L492.591 814.807L498.251 820.467L520.171 798.546L514.511 792.886L555.522 751.875L561.182 757.535L583.102 735.615L577.452 729.955L584.522 722.885L485.52 623.883L478.45 630.963Z" fill="#C4C4C4" stroke="black"/>
</g>
<g clip-path="url(#clip2)">
<path d="M632.801 745.313L627.14 739.653L605.22 761.573L610.88 767.233L569.869 808.244L564.209 802.584L542.289 824.505L547.949 830.165L540.879 837.235L639.871 936.227L646.941 929.157L652.601 934.817L674.521 912.896L668.861 907.236L709.872 866.225L715.532 871.886L737.453 849.965L731.803 844.305L738.873 837.235L639.871 738.233L632.801 745.313Z" fill="#C4C4C4" stroke="black"/>
</g>
<g clip-path="url(#clip3)">
<path d="M747.151 899.663L741.491 894.003L719.57 915.924L725.23 921.584L684.22 962.595L678.559 956.935L656.639 978.855L662.299 984.515L655.229 991.585L754.221 1090.58L761.291 1083.51L766.951 1089.17L788.872 1067.25L783.212 1061.59L824.223 1020.58L829.883 1026.24L851.803 1004.32L846.153 998.656L853.223 991.585L754.221 892.583L747.151 899.663Z" fill="#C4C4C4" stroke="black"/>
</g>
<g clip-path="url(#clip4)">
<path d="M699.976 543.788L694.316 538.127L672.395 560.048L678.055 565.708L637.045 606.719L631.384 601.059L609.464 622.979L615.124 628.639L608.054 635.709L707.046 734.702L714.116 727.631L719.776 733.292L741.697 711.371L736.037 705.711L777.047 664.7L782.708 670.36L804.628 648.44L798.978 642.78L806.048 635.709L707.046 536.707L699.976 543.788Z" fill="#C4C4C4" stroke="black"/>
</g>
<g clip-path="url(#clip5)">
<path d="M834.326 678.138L828.666 672.478L806.746 694.398L812.406 700.059L771.395 741.069L765.735 735.409L743.814 757.33L749.474 762.99L742.404 770.06L841.396 869.052L848.466 861.982L854.127 867.642L876.047 845.722L870.387 840.061L911.398 799.051L917.058 804.711L938.978 782.79L933.328 777.13L940.398 770.06L841.396 671.058L834.326 678.138Z" fill="#C4C4C4" stroke="black"/>
</g>
<g clip-path="url(#clip6)">
<path d="M1216.61 777.126L1210.95 782.786L1232.87 804.707L1238.53 799.046L1279.54 840.057L1273.88 845.717L1295.8 867.638L1301.46 861.978L1308.53 869.048L1407.53 770.056L1400.46 762.986L1406.12 757.326L1384.2 735.405L1378.54 741.065L1337.53 700.054L1343.19 694.394L1321.26 672.474L1315.6 678.124L1308.53 671.054L1209.53 770.056L1216.61 777.126Z" fill="#C4C4C4" stroke="black"/>
</g>
<g clip-path="url(#clip7)">
<path d="M1303.79 998.651L1298.13 1004.31L1320.05 1026.23L1325.71 1020.57L1366.72 1061.58L1361.06 1067.24L1382.98 1089.16L1388.64 1083.5L1395.71 1090.57L1494.7 991.581L1487.63 984.511L1493.29 978.851L1471.37 956.93L1465.71 962.591L1424.7 921.58L1430.36 915.92L1408.44 893.999L1402.78 899.649L1395.71 892.579L1296.71 991.581L1303.79 998.651Z" fill="#C4C4C4" stroke="black"/>
</g>
<g clip-path="url(#clip8)">
<path d="M1418.14 844.301L1412.48 849.961L1434.4 871.882L1440.06 866.222L1481.07 907.233L1475.41 912.893L1497.33 934.813L1502.99 929.153L1510.06 936.223L1609.05 837.231L1601.98 830.161L1607.64 824.501L1585.72 802.58L1580.06 808.24L1539.05 767.23L1544.71 761.57L1522.79 739.649L1517.13 745.299L1510.06 738.229L1411.06 837.231L1418.14 844.301Z" fill="#C4C4C4" stroke="black"/>
</g>
<g clip-path="url(#clip9)">
<path d="M1572.49 729.951L1566.83 735.611L1588.75 757.531L1594.41 751.871L1635.42 792.882L1629.76 798.542L1651.68 820.463L1657.34 814.802L1664.41 821.873L1763.4 722.881L1756.33 715.81L1761.99 710.15L1740.07 688.23L1734.41 693.89L1693.4 652.879L1699.06 647.219L1677.14 625.298L1671.48 630.949L1664.41 623.878L1565.41 722.881L1572.49 729.951Z" fill="#C4C4C4" stroke="black"/>
</g>
<g clip-path="url(#clip10)">
<path d="M1350.96 642.776L1345.3 648.436L1367.22 670.356L1372.88 664.696L1413.89 705.707L1408.23 711.367L1430.15 733.288L1435.81 727.628L1442.88 734.698L1541.88 635.706L1534.81 628.636L1540.47 622.975L1518.55 601.055L1512.89 606.715L1471.88 565.704L1477.54 560.044L1455.62 538.124L1449.96 543.774L1442.88 536.704L1343.88 635.706L1350.96 642.776Z" fill="#C4C4C4" stroke="black"/>
</g>
<g clip-path="url(#clip11)">
<path d="M1515.31 518.426L1509.65 524.086L1531.57 546.006L1537.23 540.346L1578.24 581.357L1572.58 587.017L1594.51 608.938L1600.17 603.278L1607.24 610.348L1706.23 511.356L1699.16 504.285L1704.82 498.625L1682.9 476.705L1677.24 482.365L1636.23 441.354L1641.89 435.694L1619.97 413.774L1614.31 419.424L1607.24 412.354L1508.23 511.356L1515.31 518.426Z" fill="#C4C4C4" stroke="black"/>
</g>
<circle cx="1282" cy="1086" r="14.5" fill="#07B5FF" stroke="black"/>
<circle cx="866" cy="1086" r="14.5" fill="#07B5FF" stroke="black"/>
<circle cx="356" cy="1116" r="14.5" fill="#07B5FF" stroke="black"/>
<circle cx="1795" cy="1116" r="14.5" fill="#07B5FF" stroke="black"/>
<circle cx="1768" cy="593" r="14.5" fill="#07B5FF" stroke="black"/>
<circle cx="383" cy="593" r="14.5" fill="#07B5FF" stroke="black"/>
<circle cx="678" cy="343" r="14.5" fill="#07B5FF" stroke="black"/>
<rect width="64" height="463" rx="10" transform="matrix(0 -1 -1 0 1215 456.213)" fill="#A0A0A0" stroke="black"/>
<rect width="64" height="364" rx="10" transform="matrix(0 -1 -1 0 1116 290.213)" fill="#A0A0A0" stroke="black"/>
<defs>
<clipPath id="clip0">
<rect width="190" height="190" fill="white" transform="translate(542.701 377) rotate(45)"/>
</clipPath>
<clipPath id="clip1">
<rect width="190" height="190" fill="white" transform="translate(485.525 588.525) rotate(45)"/>
</clipPath>
<clipPath id="clip2">
<rect width="190" height="190" fill="white" transform="translate(639.876 702.875) rotate(45)"/>
</clipPath>
<clipPath id="clip3">
<rect width="190" height="190" fill="white" transform="translate(754.226 857.226) rotate(45)"/>
</clipPath>
<clipPath id="clip4">
<rect width="190" height="190" fill="white" transform="translate(707.051 501.35) rotate(45)"/>
</clipPath>
<clipPath id="clip5">
<rect width="190" height="190" fill="white" transform="translate(841.401 635.701) rotate(45)"/>
</clipPath>
<clipPath id="clip6">
<rect width="190" height="190" fill="white" transform="translate(1174.18 770.051) rotate(-45)"/>
</clipPath>
<clipPath id="clip7">
<rect width="190" height="190" fill="white" transform="translate(1261.35 991.576) rotate(-45)"/>
</clipPath>
<clipPath id="clip8">
<rect width="190" height="190" fill="white" transform="translate(1375.7 837.226) rotate(-45)"/>
</clipPath>
<clipPath id="clip9">
<rect width="190" height="190" fill="white" transform="translate(1530.05 722.875) rotate(-45)"/>
</clipPath>
<clipPath id="clip10">
<rect width="190" height="190" fill="white" transform="translate(1308.53 635.701) rotate(-45)"/>
</clipPath>
<clipPath id="clip11">
<rect width="190" height="190" fill="white" transform="translate(1472.88 511.351) rotate(-45)"/>
</clipPath>
</defs>
</svg>
