<svg width="2150" height="1664" viewBox="0 0 2150 1664" fill="none" xmlns="http://www.w3.org/2000/svg">
<rect x="25" y="64" width="2100" height="1500" rx="100" fill="white" stroke="black"/>
<path opacity="0.8" d="M1314 222C1314 194.386 1291.61 172 1264 172H771.474C728.935 172 687.505 185.563 653.201 210.719L554.73 282.932C545.593 289.632 537.042 297.096 529.17 305.244L375.684 464.102C352.911 487.672 336.279 516.479 327.252 547.986L137.953 1208.71C134.667 1220.18 133 1232.05 133 1243.99V1243.99C133 1278.52 146.948 1311.6 171.681 1335.7L259.489 1421.29C279.693 1440.98 306.79 1452 335.003 1452V1452C363.213 1452 390.307 1440.98 410.51 1421.29L555.554 1279.95C568.287 1267.54 584.099 1258.75 601.36 1254.49L776.608 1211.19C808.388 1203.34 841.589 1217.01 858.632 1244.96L875.769 1273.06C893.923 1302.83 926.277 1321 961.148 1321H1187.66C1223.18 1321 1256.02 1302.17 1273.97 1271.52L1288.74 1246.27C1305.51 1217.63 1339.1 1203.42 1371.33 1211.32L1547.67 1254.54C1564.91 1258.77 1580.72 1267.51 1593.47 1279.87L1739.47 1421.43C1759.69 1441.04 1786.75 1452 1814.92 1452V1452C1843.18 1452 1870.33 1440.96 1890.57 1421.23L1978.32 1335.7C2003.05 1311.6 2017 1278.52 2017 1243.99V1243.99C2017 1232.05 2015.33 1220.18 2012.05 1208.71L1822.67 547.73C1813.69 516.386 1797.19 487.712 1774.59 464.207L1641.86 326.146C1623.85 307.408 1594.48 305.597 1574.3 321.98L1421.77 445.817C1412.86 453.052 1401.74 457 1390.26 457H1364C1336.39 457 1314 434.614 1314 407V222Z" fill="#E89595" stroke="black"/>
<rect x="1254" y="417" width="145" height="127" transform="rotate(-90 1254 417)" fill="#A0A0A0" stroke="black"/>
<rect x="925" y="880" width="301" height="376" fill="#898CD6" stroke="black" stroke-width="20"/>
<path d="M1183.14 537.827L1110.34 502.862C1108.6 502.029 1107.5 500.277 1107.5 498.355V491.5C1107.5 488.739 1109.74 486.5 1112.5 486.5H1255C1257.76 486.5 1260 488.739 1260 491.5V499.005C1260 500.576 1259.26 502.056 1258.01 503L1212.26 537.428C1211.76 537.806 1211.19 538.086 1210.58 538.253L1198.38 541.62C1197.48 541.868 1196.52 541.859 1195.63 541.594L1183.88 538.114C1183.63 538.038 1183.38 537.942 1183.14 537.827Z" fill="#A0A0A0" stroke="black" stroke-linecap="round" stroke-linejoin="round"/>
<path d="M1139.31 561.594L1135.99 563.255C1135.02 563.738 1133.92 563.895 1132.86 563.702L1107.6 559.109C1107.2 559.037 1106.79 559.013 1106.39 559.039L1088.82 560.161C1085.94 560.344 1083.5 558.057 1083.5 555.171V539.884C1083.5 536.977 1085.97 534.683 1088.87 534.898L1110.5 536.5L1133.04 541.196C1133.99 541.394 1134.87 541.867 1135.56 542.555L1141.61 548.608C1142.79 549.79 1143.3 551.485 1142.98 553.124L1141.98 558.102C1141.68 559.615 1140.69 560.904 1139.31 561.594Z" fill="#A0A0A0" stroke="black" stroke-linecap="round" stroke-linejoin="round"/>
<circle cx="1170" cy="578" r="21.5" fill="#A0A0A0" stroke="black" stroke-width="3"/>
<circle cx="1221.5" cy="578.5" r="10" fill="#A0A0A0" stroke="black" stroke-width="3"/>
<circle cx="1119.5" cy="578.5" r="10" fill="#A0A0A0" stroke="black" stroke-width="3"/>
<path d="M993.139 537.827L920.335 502.862C918.602 502.029 917.5 500.277 917.5 498.355V491.5C917.5 488.739 919.739 486.5 922.5 486.5H1065C1067.76 486.5 1070 488.739 1070 491.5V499.005C1070 500.576 1069.26 502.056 1068.01 503L1022.26 537.428C1021.76 537.806 1021.19 538.086 1020.58 538.253L1008.38 541.62C1007.48 541.868 1006.52 541.859 1005.63 541.594L993.884 538.114C993.628 538.038 993.379 537.942 993.139 537.827Z" fill="#A0A0A0" stroke="black" stroke-linecap="round" stroke-linejoin="round"/>
<path d="M949.313 561.594L945.991 563.255C945.023 563.738 943.925 563.895 942.86 563.702L917.602 559.109C917.202 559.037 916.795 559.013 916.389 559.039L898.819 560.161C895.938 560.344 893.5 558.057 893.5 555.171V539.884C893.5 536.977 895.97 534.683 898.869 534.898L920.5 536.5L943.039 541.196C943.992 541.394 944.867 541.867 945.555 542.555L951.608 548.608C952.79 549.79 953.303 551.485 952.975 553.124L951.98 558.102C951.677 559.615 950.693 560.904 949.313 561.594Z" fill="#A0A0A0" stroke="black" stroke-linecap="round" stroke-linejoin="round"/>
<circle cx="980" cy="578" r="21.5" fill="#A0A0A0" stroke="black" stroke-width="3"/>
<circle cx="1031.5" cy="578.5" r="10" fill="#A0A0A0" stroke="black" stroke-width="3"/>
<circle cx="929.5" cy="578.5" r="10" fill="#A0A0A0" stroke="black" stroke-width="3"/>
<path d="M1088.14 747.827L1015.34 712.862C1013.6 712.029 1012.5 710.277 1012.5 708.355V701.5C1012.5 698.739 1014.74 696.5 1017.5 696.5H1160C1162.76 696.5 1165 698.739 1165 701.5V709.005C1165 710.576 1164.26 712.056 1163.01 713L1117.26 747.428C1116.76 747.806 1116.19 748.086 1115.58 748.253L1103.38 751.62C1102.48 751.868 1101.52 751.859 1100.63 751.594L1088.88 748.114C1088.63 748.038 1088.38 747.942 1088.14 747.827Z" fill="#A0A0A0" stroke="black" stroke-linecap="round" stroke-linejoin="round"/>
<path d="M1044.31 771.594L1040.99 773.255C1040.02 773.738 1038.92 773.895 1037.86 773.702L1012.6 769.109C1012.2 769.037 1011.79 769.013 1011.39 769.039L993.819 770.161C990.938 770.344 988.5 768.057 988.5 765.171V749.884C988.5 746.977 990.97 744.683 993.869 744.898L1015.5 746.5L1038.04 751.196C1038.99 751.394 1039.87 751.867 1040.56 752.555L1046.61 758.608C1047.79 759.79 1048.3 761.485 1047.98 763.124L1046.98 768.102C1046.68 769.615 1045.69 770.904 1044.31 771.594Z" fill="#A0A0A0" stroke="black" stroke-linecap="round" stroke-linejoin="round"/>
<circle cx="1075" cy="788" r="21.5" fill="#A0A0A0" stroke="black" stroke-width="3"/>
<circle cx="1126.5" cy="788.5" r="10" fill="#A0A0A0" stroke="black" stroke-width="3"/>
<circle cx="1024.5" cy="788.5" r="10" fill="#A0A0A0" stroke="black" stroke-width="3"/>
<g clip-path="url(#clip0)">
<path d="M580.398 492.234L553.642 416.03C553.005 414.216 553.465 412.198 554.824 410.838L559.671 405.991C561.624 404.039 564.789 404.039 566.742 405.991L667.505 506.754C669.457 508.707 669.457 511.873 667.505 513.825L662.198 519.132C661.087 520.243 659.519 520.767 657.963 520.547L601.271 512.544C600.649 512.456 600.049 512.252 599.502 511.941L588.492 505.692C587.679 505.231 587.012 504.551 586.566 503.729L580.722 492.964C580.594 492.729 580.486 492.486 580.398 492.234Z" fill="#A0A0A0" stroke="black" stroke-linecap="round" stroke-linejoin="round"/>
<path d="M532.602 478.05L529.079 476.876C528.053 476.534 527.165 475.868 526.549 474.978L511.936 453.871C511.705 453.537 511.434 453.232 511.128 452.963L497.911 441.332C495.744 439.425 495.637 436.084 497.679 434.043L508.488 423.234C510.543 421.178 513.912 421.303 515.81 423.504L529.973 439.933L542.59 459.191C543.123 460.005 543.408 460.957 543.408 461.931L543.408 470.491C543.408 472.162 542.572 473.724 541.181 474.651L536.957 477.467C535.673 478.323 534.066 478.538 532.602 478.05Z" fill="#A0A0A0" stroke="black" stroke-linecap="round" stroke-linejoin="round"/>
<circle cx="542.701" cy="511.35" r="21.5" transform="rotate(45 542.701 511.35)" fill="#A0A0A0" stroke="black" stroke-width="3"/>
<circle cx="578.763" cy="548.12" r="10" transform="rotate(45 578.763 548.12)" fill="#A0A0A0" stroke="black" stroke-width="3"/>
<circle cx="506.638" cy="475.995" r="10" transform="rotate(45 506.638 475.995)" fill="#A0A0A0" stroke="black" stroke-width="3"/>
</g>
<g clip-path="url(#clip1)">
<path d="M523.223 703.76L496.467 627.556C495.83 625.742 496.289 623.723 497.649 622.364L502.496 617.517C504.448 615.564 507.614 615.564 509.567 617.517L610.329 718.28C612.282 720.232 612.282 723.398 610.329 725.351L605.023 730.658C603.912 731.768 602.344 732.293 600.788 732.073L544.096 724.07C543.474 723.982 542.874 723.777 542.327 723.467L531.317 717.218C530.504 716.757 529.836 716.076 529.391 715.255L523.546 704.489C523.419 704.255 523.311 704.011 523.223 703.76Z" fill="#A0A0A0" stroke="black" stroke-linecap="round" stroke-linejoin="round"/>
<path d="M475.427 689.575L471.904 688.401C470.877 688.059 469.99 687.393 469.374 686.503L454.761 665.396C454.53 665.062 454.258 664.757 453.953 664.488L440.736 652.857C438.569 650.95 438.462 647.609 440.503 645.568L451.313 634.759C453.368 632.703 456.737 632.828 458.635 635.03L472.797 651.458L485.415 670.716C485.948 671.53 486.232 672.482 486.232 673.456L486.232 682.016C486.232 683.688 485.397 685.249 484.006 686.176L479.782 688.992C478.498 689.848 476.891 690.063 475.427 689.575Z" fill="#A0A0A0" stroke="black" stroke-linecap="round" stroke-linejoin="round"/>
<circle cx="485.525" cy="722.876" r="21.5" transform="rotate(45 485.525 722.876)" fill="#A0A0A0" stroke="black" stroke-width="3"/>
<circle cx="521.588" cy="759.645" r="10" transform="rotate(45 521.588 759.645)" fill="#A0A0A0" stroke="black" stroke-width="3"/>
<circle cx="449.463" cy="687.52" r="10" transform="rotate(45 449.463 687.52)" fill="#A0A0A0" stroke="black" stroke-width="3"/>
</g>
<g clip-path="url(#clip2)">
<path d="M677.573 818.11L650.817 741.906C650.18 740.092 650.64 738.073 651.999 736.714L656.846 731.867C658.799 729.914 661.965 729.914 663.917 731.867L764.68 832.63C766.633 834.582 766.633 837.748 764.68 839.701L759.373 845.008C758.262 846.119 756.694 846.643 755.139 846.423L698.447 838.42C697.824 838.332 697.224 838.127 696.678 837.817L685.667 831.568C684.854 831.107 684.187 830.427 683.741 829.605L677.897 818.839C677.77 818.605 677.662 818.361 677.573 818.11Z" fill="#A0A0A0" stroke="black" stroke-linecap="round" stroke-linejoin="round"/>
<path d="M629.778 803.925L626.254 802.751C625.228 802.409 624.34 801.743 623.724 800.854L609.111 779.746C608.88 779.412 608.609 779.107 608.304 778.839L595.086 767.207C592.919 765.3 592.813 761.959 594.854 759.918L605.663 749.109C607.719 747.053 611.088 747.178 612.986 749.38L627.148 765.808L639.765 785.066C640.299 785.88 640.583 786.833 640.583 787.806L640.583 796.366C640.583 798.038 639.747 799.599 638.356 800.526L634.132 803.342C632.849 804.198 631.241 804.413 629.778 803.925Z" fill="#A0A0A0" stroke="black" stroke-linecap="round" stroke-linejoin="round"/>
<circle cx="639.876" cy="837.226" r="21.5" transform="rotate(45 639.876 837.226)" fill="#A0A0A0" stroke="black" stroke-width="3"/>
<circle cx="675.938" cy="873.995" r="10" transform="rotate(45 675.938 873.995)" fill="#A0A0A0" stroke="black" stroke-width="3"/>
<circle cx="603.813" cy="801.87" r="10" transform="rotate(45 603.813 801.87)" fill="#A0A0A0" stroke="black" stroke-width="3"/>
</g>
<g clip-path="url(#clip3)">
<path d="M791.924 972.461L765.167 896.257C764.53 894.443 764.99 892.424 766.349 891.065L771.196 886.218C773.149 884.265 776.315 884.265 778.267 886.218L879.03 986.98C880.983 988.933 880.983 992.099 879.03 994.051L873.723 999.358C872.612 1000.47 871.044 1000.99 869.489 1000.77L812.797 992.77C812.175 992.682 811.574 992.478 811.028 992.168L800.017 985.919C799.204 985.457 798.537 984.777 798.091 983.956L792.247 973.19C792.12 972.956 792.012 972.712 791.924 972.461Z" fill="#A0A0A0" stroke="black" stroke-linecap="round" stroke-linejoin="round"/>
<path d="M744.128 958.276L740.604 957.101C739.578 956.759 738.69 956.094 738.074 955.204L723.462 934.097C723.23 933.762 722.959 933.458 722.654 933.189L709.436 921.558C707.269 919.651 707.163 916.31 709.204 914.269L720.013 903.459C722.069 901.404 725.438 901.529 727.336 903.73L741.498 920.158L754.115 939.416C754.649 940.231 754.933 941.183 754.933 942.157L754.933 950.717C754.933 952.388 754.098 953.949 752.707 954.877L748.482 957.693C747.199 958.549 745.592 958.764 744.128 958.276Z" fill="#A0A0A0" stroke="black" stroke-linecap="round" stroke-linejoin="round"/>
<circle cx="754.226" cy="991.576" r="21.5" transform="rotate(45 754.226 991.576)" fill="#A0A0A0" stroke="black" stroke-width="3"/>
<circle cx="790.289" cy="1028.35" r="10" transform="rotate(45 790.289 1028.35)" fill="#A0A0A0" stroke="black" stroke-width="3"/>
<circle cx="718.164" cy="956.221" r="10" transform="rotate(45 718.164 956.221)" fill="#A0A0A0" stroke="black" stroke-width="3"/>
</g>
<g clip-path="url(#clip4)">
<path d="M744.748 616.585L717.992 540.381C717.355 538.567 717.815 536.548 719.174 535.189L724.021 530.342C725.974 528.389 729.14 528.389 731.092 530.342L831.855 631.104C833.808 633.057 833.808 636.223 831.855 638.175L826.548 643.482C825.437 644.593 823.869 645.117 822.313 644.898L765.622 636.894C764.999 636.806 764.399 636.602 763.853 636.292L752.842 630.043C752.029 629.581 751.362 628.901 750.916 628.08L745.072 617.314C744.945 617.08 744.836 616.836 744.748 616.585Z" fill="#A0A0A0" stroke="black" stroke-linecap="round" stroke-linejoin="round"/>
<path d="M696.953 602.4L693.429 601.226C692.403 600.883 691.515 600.218 690.899 599.328L676.286 578.221C676.055 577.886 675.784 577.582 675.478 577.313L662.261 565.682C660.094 563.775 659.987 560.434 662.029 558.393L672.838 547.583C674.893 545.528 678.262 545.653 680.16 547.854L694.323 564.282L706.94 583.541C707.474 584.355 707.758 585.307 707.758 586.281L707.758 594.841C707.758 596.512 706.922 598.073 705.531 599.001L701.307 601.817C700.023 602.673 698.416 602.888 696.953 602.4Z" fill="#A0A0A0" stroke="black" stroke-linecap="round" stroke-linejoin="round"/>
<circle cx="707.051" cy="635.7" r="21.5" transform="rotate(45 707.051 635.7)" fill="#A0A0A0" stroke="black" stroke-width="3"/>
<circle cx="743.113" cy="672.47" r="10" transform="rotate(45 743.113 672.47)" fill="#A0A0A0" stroke="black" stroke-width="3"/>
<circle cx="670.988" cy="600.345" r="10" transform="rotate(45 670.988 600.345)" fill="#A0A0A0" stroke="black" stroke-width="3"/>
</g>
<g clip-path="url(#clip5)">
<path d="M879.099 750.935L852.343 674.731C851.706 672.917 852.165 670.899 853.525 669.539L858.372 664.692C860.324 662.74 863.49 662.74 865.443 664.692L966.205 765.455C968.158 767.408 968.158 770.573 966.205 772.526L960.899 777.833C959.788 778.944 958.22 779.468 956.664 779.248L899.972 771.245C899.35 771.157 898.75 770.953 898.203 770.642L887.193 764.393C886.38 763.932 885.712 763.252 885.266 762.43L879.422 751.664C879.295 751.43 879.187 751.187 879.099 750.935Z" fill="#A0A0A0" stroke="black" stroke-linecap="round" stroke-linejoin="round"/>
<path d="M831.303 736.751L827.78 735.576C826.753 735.234 825.866 734.568 825.25 733.679L810.637 712.571C810.405 712.237 810.134 711.932 809.829 711.664L796.612 700.032C794.445 698.125 794.338 694.785 796.379 692.743L807.188 681.934C809.244 679.879 812.613 680.003 814.511 682.205L828.673 698.633L841.291 717.891C841.824 718.705 842.108 719.658 842.108 720.631L842.108 729.191C842.108 730.863 841.273 732.424 839.882 733.351L835.658 736.167C834.374 737.023 832.767 737.239 831.303 736.751Z" fill="#A0A0A0" stroke="black" stroke-linecap="round" stroke-linejoin="round"/>
<circle cx="841.401" cy="770.051" r="21.5" transform="rotate(45 841.401 770.051)" fill="#A0A0A0" stroke="black" stroke-width="3"/>
<circle cx="877.464" cy="806.821" r="10" transform="rotate(45 877.464 806.821)" fill="#A0A0A0" stroke="black" stroke-width="3"/>
<circle cx="805.339" cy="734.696" r="10" transform="rotate(45 805.339 734.696)" fill="#A0A0A0" stroke="black" stroke-width="3"/>
</g>
<g clip-path="url(#clip6)">
<path d="M1289.41 732.353L1213.21 759.109C1211.39 759.746 1209.37 759.287 1208.01 757.927L1203.17 753.08C1201.21 751.128 1201.21 747.962 1203.17 746.009L1303.93 645.247C1305.88 643.294 1309.05 643.294 1311 645.247L1316.31 650.554C1317.42 651.664 1317.94 653.233 1317.72 654.788L1309.72 711.48C1309.63 712.102 1309.43 712.702 1309.12 713.249L1302.87 724.259C1302.41 725.072 1301.73 725.74 1300.9 726.186L1290.14 732.03C1289.91 732.157 1289.66 732.265 1289.41 732.353Z" fill="#A0A0A0" stroke="black" stroke-linecap="round" stroke-linejoin="round"/>
<path d="M1275.23 780.149L1274.05 783.673C1273.71 784.699 1273.04 785.587 1272.15 786.202L1251.05 800.815C1250.71 801.047 1250.41 801.318 1250.14 801.623L1238.51 814.841C1236.6 817.008 1233.26 817.114 1231.22 815.073L1220.41 804.264C1218.35 802.208 1218.48 798.839 1220.68 796.941L1237.11 782.779L1256.37 770.162C1257.18 769.628 1258.13 769.344 1259.11 769.344L1267.67 769.344C1269.34 769.344 1270.9 770.179 1271.83 771.57L1274.64 775.794C1275.5 777.078 1275.71 778.685 1275.23 780.149Z" fill="#A0A0A0" stroke="black" stroke-linecap="round" stroke-linejoin="round"/>
<circle cx="1308.53" cy="770.051" r="21.5" transform="rotate(-45 1308.53 770.051)" fill="#A0A0A0" stroke="black" stroke-width="3"/>
<circle cx="1345.3" cy="733.988" r="10" transform="rotate(-45 1345.3 733.988)" fill="#A0A0A0" stroke="black" stroke-width="3"/>
<circle cx="1273.17" cy="806.113" r="10" transform="rotate(-45 1273.17 806.113)" fill="#A0A0A0" stroke="black" stroke-width="3"/>
</g>
<g clip-path="url(#clip7)">
<path d="M1376.58 953.879L1300.38 980.635C1298.57 981.272 1296.55 980.812 1295.19 979.453L1290.34 974.606C1288.39 972.653 1288.39 969.487 1290.34 967.535L1391.1 866.772C1393.06 864.819 1396.22 864.819 1398.18 866.772L1403.48 872.079C1404.59 873.19 1405.12 874.758 1404.9 876.313L1396.89 933.005C1396.81 933.628 1396.6 934.228 1396.29 934.774L1390.04 945.785C1389.58 946.598 1388.9 947.265 1388.08 947.711L1377.31 953.555C1377.08 953.682 1376.84 953.791 1376.58 953.879Z" fill="#A0A0A0" stroke="black" stroke-linecap="round" stroke-linejoin="round"/>
<path d="M1362.4 1001.67L1361.23 1005.2C1360.88 1006.22 1360.22 1007.11 1359.33 1007.73L1338.22 1022.34C1337.89 1022.57 1337.58 1022.84 1337.31 1023.15L1325.68 1036.37C1323.77 1038.53 1320.43 1038.64 1318.39 1036.6L1307.58 1025.79C1305.53 1023.73 1305.65 1020.36 1307.85 1018.47L1324.28 1004.3L1343.54 991.687C1344.35 991.153 1345.31 990.869 1346.28 990.869L1354.84 990.869C1356.51 990.869 1358.07 991.705 1359 993.096L1361.82 997.32C1362.67 998.604 1362.89 1000.21 1362.4 1001.67Z" fill="#A0A0A0" stroke="black" stroke-linecap="round" stroke-linejoin="round"/>
<circle cx="1395.7" cy="991.576" r="21.5" transform="rotate(-45 1395.7 991.576)" fill="#A0A0A0" stroke="black" stroke-width="3"/>
<circle cx="1432.47" cy="955.514" r="10" transform="rotate(-45 1432.47 955.514)" fill="#A0A0A0" stroke="black" stroke-width="3"/>
<circle cx="1360.35" cy="1027.64" r="10" transform="rotate(-45 1360.35 1027.64)" fill="#A0A0A0" stroke="black" stroke-width="3"/>
</g>
<g clip-path="url(#clip8)">
<path d="M1490.94 799.529L1414.73 826.285C1412.92 826.922 1410.9 826.462 1409.54 825.103L1404.69 820.256C1402.74 818.303 1402.74 815.137 1404.69 813.185L1505.45 712.422C1507.41 710.469 1510.57 710.469 1512.53 712.422L1517.83 717.729C1518.94 718.84 1519.47 720.408 1519.25 721.963L1511.24 778.655C1511.16 779.278 1510.95 779.878 1510.64 780.424L1504.39 791.435C1503.93 792.248 1503.25 792.915 1502.43 793.361L1491.66 799.205C1491.43 799.332 1491.19 799.44 1490.94 799.529Z" fill="#A0A0A0" stroke="black" stroke-linecap="round" stroke-linejoin="round"/>
<path d="M1476.75 847.324L1475.58 850.848C1475.23 851.874 1474.57 852.762 1473.68 853.378L1452.57 867.991C1452.24 868.222 1451.93 868.493 1451.66 868.798L1440.03 882.016C1438.13 884.183 1434.78 884.289 1432.74 882.248L1421.93 871.439C1419.88 869.383 1420 866.014 1422.2 864.116L1438.63 849.954L1457.89 837.337C1458.71 836.803 1459.66 836.519 1460.63 836.519L1469.19 836.519C1470.86 836.519 1472.42 837.355 1473.35 838.746L1476.17 842.97C1477.02 844.254 1477.24 845.861 1476.75 847.324Z" fill="#A0A0A0" stroke="black" stroke-linecap="round" stroke-linejoin="round"/>
<circle cx="1510.05" cy="837.226" r="21.5" transform="rotate(-45 1510.05 837.226)" fill="#A0A0A0" stroke="black" stroke-width="3"/>
<circle cx="1546.82" cy="801.164" r="10" transform="rotate(-45 1546.82 801.164)" fill="#A0A0A0" stroke="black" stroke-width="3"/>
<circle cx="1474.7" cy="873.289" r="10" transform="rotate(-45 1474.7 873.289)" fill="#A0A0A0" stroke="black" stroke-width="3"/>
</g>
<g clip-path="url(#clip9)">
<path d="M1645.29 685.178L1569.08 711.934C1567.27 712.571 1565.25 712.112 1563.89 710.752L1559.04 705.905C1557.09 703.953 1557.09 700.787 1559.04 698.834L1659.81 598.071C1661.76 596.119 1664.92 596.119 1666.88 598.071L1672.18 603.378C1673.29 604.489 1673.82 606.057 1673.6 607.613L1665.59 664.305C1665.51 664.927 1665.3 665.527 1664.99 666.074L1658.74 677.084C1658.28 677.897 1657.6 678.564 1656.78 679.01L1646.01 684.855C1645.78 684.982 1645.54 685.09 1645.29 685.178Z" fill="#A0A0A0" stroke="black" stroke-linecap="round" stroke-linejoin="round"/>
<path d="M1631.1 732.974L1629.93 736.497C1629.58 737.524 1628.92 738.411 1628.03 739.027L1606.92 753.64C1606.59 753.871 1606.28 754.143 1606.01 754.448L1594.38 767.665C1592.48 769.832 1589.13 769.939 1587.09 767.898L1576.28 757.088C1574.23 755.033 1574.35 751.664 1576.55 749.766L1592.98 735.604L1612.24 722.986C1613.06 722.453 1614.01 722.169 1614.98 722.169L1623.54 722.169C1625.21 722.169 1626.77 723.004 1627.7 724.395L1630.52 728.619C1631.37 729.903 1631.59 731.51 1631.1 732.974Z" fill="#A0A0A0" stroke="black" stroke-linecap="round" stroke-linejoin="round"/>
<circle cx="1664.4" cy="722.875" r="21.5" transform="rotate(-45 1664.4 722.875)" fill="#A0A0A0" stroke="black" stroke-width="3"/>
<circle cx="1701.17" cy="686.813" r="10" transform="rotate(-45 1701.17 686.813)" fill="#A0A0A0" stroke="black" stroke-width="3"/>
<circle cx="1629.05" cy="758.938" r="10" transform="rotate(-45 1629.05 758.938)" fill="#A0A0A0" stroke="black" stroke-width="3"/>
</g>
<g clip-path="url(#clip10)">
<path d="M1423.76 598.003L1347.56 624.759C1345.74 625.396 1343.72 624.937 1342.36 623.577L1337.52 618.73C1335.56 616.778 1335.56 613.612 1337.52 611.659L1438.28 510.897C1440.23 508.944 1443.4 508.944 1445.35 510.897L1450.66 516.204C1451.77 517.314 1452.29 518.883 1452.07 520.438L1444.07 577.13C1443.98 577.752 1443.78 578.352 1443.47 578.899L1437.22 589.909C1436.76 590.722 1436.08 591.39 1435.25 591.836L1424.49 597.68C1424.26 597.807 1424.01 597.915 1423.76 598.003Z" fill="#A0A0A0" stroke="black" stroke-linecap="round" stroke-linejoin="round"/>
<path d="M1409.58 645.799L1408.4 649.323C1408.06 650.349 1407.39 651.237 1406.5 651.852L1385.4 666.465C1385.06 666.697 1384.76 666.968 1384.49 667.273L1372.86 680.49C1370.95 682.658 1367.61 682.764 1365.57 680.723L1354.76 669.914C1352.7 667.858 1352.83 664.489 1355.03 662.591L1371.46 648.429L1390.72 635.811C1391.53 635.278 1392.48 634.994 1393.46 634.994L1402.02 634.994C1403.69 634.994 1405.25 635.829 1406.18 637.22L1408.99 641.444C1409.85 642.728 1410.06 644.335 1409.58 645.799Z" fill="#A0A0A0" stroke="black" stroke-linecap="round" stroke-linejoin="round"/>
<circle cx="1442.88" cy="635.701" r="21.5" transform="rotate(-45 1442.88 635.701)" fill="#A0A0A0" stroke="black" stroke-width="3"/>
<circle cx="1479.65" cy="599.638" r="10" transform="rotate(-45 1479.65 599.638)" fill="#A0A0A0" stroke="black" stroke-width="3"/>
<circle cx="1407.52" cy="671.763" r="10" transform="rotate(-45 1407.52 671.763)" fill="#A0A0A0" stroke="black" stroke-width="3"/>
</g>
<g clip-path="url(#clip11)">
<path d="M1588.11 473.653L1511.91 500.409C1510.09 501.046 1508.07 500.587 1506.71 499.227L1501.87 494.38C1499.91 492.428 1499.91 489.262 1501.87 487.309L1602.63 386.546C1604.58 384.594 1607.75 384.594 1609.7 386.546L1615.01 391.853C1616.12 392.964 1616.64 394.532 1616.42 396.088L1608.42 452.78C1608.33 453.402 1608.13 454.002 1607.82 454.549L1601.57 465.559C1601.11 466.372 1600.43 467.039 1599.61 467.485L1588.84 473.33C1588.61 473.457 1588.36 473.565 1588.11 473.653Z" fill="#A0A0A0" stroke="black" stroke-linecap="round" stroke-linejoin="round"/>
<path d="M1573.93 521.449L1572.75 524.972C1572.41 525.999 1571.74 526.886 1570.85 527.502L1549.75 542.115C1549.41 542.346 1549.11 542.618 1548.84 542.923L1537.21 556.14C1535.3 558.307 1531.96 558.414 1529.92 556.373L1519.11 545.563C1517.05 543.508 1517.18 540.139 1519.38 538.241L1535.81 524.079L1555.07 511.461C1555.88 510.928 1556.83 510.644 1557.81 510.644L1566.37 510.644C1568.04 510.644 1569.6 511.479 1570.53 512.87L1573.34 517.094C1574.2 518.378 1574.41 519.985 1573.93 521.449Z" fill="#A0A0A0" stroke="black" stroke-linecap="round" stroke-linejoin="round"/>
<circle cx="1607.23" cy="511.351" r="21.5" transform="rotate(-45 1607.23 511.351)" fill="#A0A0A0" stroke="black" stroke-width="3"/>
<circle cx="1644" cy="475.288" r="10" transform="rotate(-45 1644 475.288)" fill="#A0A0A0" stroke="black" stroke-width="3"/>
<circle cx="1571.87" cy="547.413" r="10" transform="rotate(-45 1571.87 547.413)" fill="#A0A0A0" stroke="black" stroke-width="3"/>
</g>
<circle cx="1282" cy="1086" r="14.5" fill="#07B5FF" stroke="black"/>
<circle cx="866" cy="1086" r="14.5" fill="#07B5FF" stroke="black"/>
<circle cx="356" cy="1116" r="14.5" fill="#07B5FF" stroke="black"/>
<circle cx="1795" cy="1116" r="14.5" fill="#07B5FF" stroke="black"/>
<circle cx="1768" cy="593" r="14.5" fill="#07B5FF" stroke="black"/>
<circle cx="383" cy="593" r="14.5" fill="#07B5FF" stroke="black"/>
<circle cx="678" cy="343" r="14.5" fill="#07B5FF" stroke="black"/>
<rect width="64" height="463" rx="10" transform="matrix(0 -1 -1 0 1215 456.213)" fill="#A0A0A0" stroke="black"/>
<rect width="64" height="364" rx="10" transform="matrix(0 -1 -1 0 1116 290.213)" fill="#A0A0A0" stroke="black"/>
<path d="M1259.9 519.898L918.932 513.059C917.121 513.022 915.472 512.01 914.62 510.413L903.922 490.353C902.145 487.022 904.559 483 908.333 483H1260C1262.76 483 1265 485.239 1265 488V514.899C1265 517.699 1262.7 519.954 1259.9 519.898Z" fill="#C4C4C4" fill-opacity="0.5" stroke="black" stroke-linecap="round" stroke-linejoin="round"/>
<path d="M663.146 526.111L545.627 403.815C543.315 401.409 543.963 397.457 546.922 395.916L585.484 375.831C587.544 374.758 590.071 375.245 591.585 377.006L674.385 473.284C674.791 473.757 675.283 474.15 675.834 474.442L774.426 526.696C774.807 526.898 775.16 527.148 775.477 527.441L917.563 658.673C918.487 659.526 919.698 660 920.956 660H1204.1C1205.32 660 1206.51 659.552 1207.42 658.74L1347.45 534.487C1347.82 534.164 1348.22 533.896 1348.67 533.691L1444.52 489.222C1444.84 489.074 1445.14 488.894 1445.42 488.683L1595.53 375.859C1597.04 374.72 1599.07 374.536 1600.77 375.384L1613.93 381.966C1616.94 383.472 1617.64 387.466 1615.31 389.898L1505.62 504.35C1505.21 504.78 1504.73 505.133 1504.19 505.392L1445.71 533.656C1445.24 533.884 1444.81 534.185 1444.43 534.547L1209.57 759.577C1207.59 761.473 1204.46 761.422 1202.54 759.463L1162.47 718.504C1161.53 717.542 1160.24 717 1158.9 717H1007.33C1006.46 717 1005.6 717.227 1004.85 717.659L973.519 735.56C971.961 736.451 971 738.107 971 739.902V773C971 775.761 968.761 778 966 778H959.01C957.72 778 956.48 777.501 955.549 776.608L712.812 543.779C712.277 543.266 711.635 542.878 710.932 542.644L665.17 527.39C664.401 527.134 663.707 526.695 663.146 526.111Z" fill="#C4C4C4" fill-opacity="0.5" stroke="black" stroke-linecap="round" stroke-linejoin="round"/>
<path d="M512 641L465.894 589.469C463.543 586.842 464.576 582.673 467.881 581.447L520.171 562.049C521.911 561.404 523.865 561.775 525.247 563.013L877.337 878.51C878.395 879.458 879 880.812 879 882.233V993.428C879 997.81 873.764 1000.07 870.573 997.069L777.352 909.331C777.118 909.111 776.906 908.869 776.718 908.608L658.089 743.516C657.387 742.538 656.355 741.847 655.183 741.569L599.394 728.331C598.483 728.115 597.651 727.647 596.993 726.981L512 641Z" fill="#C4C4C4" fill-opacity="0.5" stroke="black" stroke-linecap="round" stroke-linejoin="round"/>
<path d="M1405.36 886.488L1296 985.654C1293.02 988.35 1288.25 986.62 1287.69 982.644L1274.37 887.617C1274.14 885.98 1274.73 884.335 1275.96 883.223L1640.58 551.925C1643.19 549.558 1647.36 550.553 1648.61 553.843L1665.88 599.064C1666.56 600.859 1666.16 602.888 1664.84 604.283L1563.09 711.845C1562.38 712.596 1561.46 713.109 1560.44 713.312L1518.41 721.718C1517.49 721.902 1516.64 722.342 1515.96 722.988L1408.56 824.52C1407.57 825.465 1407 826.779 1407 828.154V882.784C1407 884.195 1406.4 885.541 1405.36 886.488Z" fill="#C4C4C4" fill-opacity="0.5" stroke="black" stroke-linecap="round" stroke-linejoin="round"/>
<defs>
<clipPath id="clip0">
<rect width="190" height="190" fill="white" transform="translate(542.701 377) rotate(45)"/>
</clipPath>
<clipPath id="clip1">
<rect width="190" height="190" fill="white" transform="translate(485.525 588.525) rotate(45)"/>
</clipPath>
<clipPath id="clip2">
<rect width="190" height="190" fill="white" transform="translate(639.876 702.875) rotate(45)"/>
</clipPath>
<clipPath id="clip3">
<rect width="190" height="190" fill="white" transform="translate(754.226 857.226) rotate(45)"/>
</clipPath>
<clipPath id="clip4">
<rect width="190" height="190" fill="white" transform="translate(707.051 501.35) rotate(45)"/>
</clipPath>
<clipPath id="clip5">
<rect width="190" height="190" fill="white" transform="translate(841.401 635.701) rotate(45)"/>
</clipPath>
<clipPath id="clip6">
<rect width="190" height="190" fill="white" transform="translate(1174.18 770.051) rotate(-45)"/>
</clipPath>
<clipPath id="clip7">
<rect width="190" height="190" fill="white" transform="translate(1261.35 991.576) rotate(-45)"/>
</clipPath>
<clipPath id="clip8">
<rect width="190" height="190" fill="white" transform="translate(1375.7 837.226) rotate(-45)"/>
</clipPath>
<clipPath id="clip9">
<rect width="190" height="190" fill="white" transform="translate(1530.05 722.875) rotate(-45)"/>
</clipPath>
<clipPath id="clip10">
<rect width="190" height="190" fill="white" transform="translate(1308.53 635.701) rotate(-45)"/>
</clipPath>
<clipPath id="clip11">
<rect width="190" height="190" fill="white" transform="translate(1472.88 511.351) rotate(-45)"/>
</clipPath>
</defs>
</svg>
