<svg width="2150" height="1664" viewBox="0 0 2150 1664" fill="none" xmlns="http://www.w3.org/2000/svg">
<rect x="25" y="64" width="2100" height="1500" rx="100" fill="white" stroke="black"/>
<path opacity="0.8" d="M1314 222C1314 194.386 1291.61 172 1264 172H771.474C728.935 172 687.505 185.563 653.201 210.719L554.73 282.932C545.593 289.632 537.042 297.096 529.17 305.244L375.684 464.102C352.911 487.672 336.279 516.479 327.252 547.986L137.953 1208.71C134.667 1220.18 133 1232.05 133 1243.99V1243.99C133 1278.52 146.948 1311.6 171.681 1335.7L259.489 1421.29C279.693 1440.98 306.79 1452 335.003 1452V1452C363.213 1452 390.307 1440.98 410.51 1421.29L555.554 1279.95C568.287 1267.54 584.099 1258.75 601.36 1254.49L776.608 1211.19C808.388 1203.34 841.589 1217.01 858.632 1244.96L875.769 1273.06C893.923 1302.83 926.277 1321 961.148 1321H1187.66C1223.18 1321 1256.02 1302.17 1273.97 1271.52L1288.74 1246.27C1305.51 1217.63 1339.1 1203.42 1371.33 1211.32L1547.67 1254.54C1564.91 1258.77 1580.72 1267.51 1593.47 1279.87L1739.47 1421.43C1759.69 1441.04 1786.75 1452 1814.92 1452V1452C1843.18 1452 1870.33 1440.96 1890.57 1421.23L1978.32 1335.7C2003.05 1311.6 2017 1278.52 2017 1243.99V1243.99C2017 1232.05 2015.33 1220.18 2012.05 1208.71L1822.67 547.73C1813.69 516.386 1797.19 487.712 1774.59 464.207L1641.86 326.146C1623.85 307.408 1594.48 305.597 1574.3 321.98L1421.77 445.817C1412.86 453.052 1401.74 457 1390.26 457H1364C1336.39 457 1314 434.614 1314 407V222Z" fill="#E89595" stroke="black"/>
<rect x="1254" y="417" width="145" height="127" transform="rotate(-90 1254 417)" fill="#A0A0A0" stroke="black"/>
<rect x="925" y="880" width="301" height="376" fill="#898CD6" stroke="black" stroke-width="20"/>
<circle cx="1170" cy="578" r="21.5" fill="#A0A0A0" stroke="black" stroke-width="3"/>
<circle cx="1221.5" cy="578.5" r="10" fill="#A0A0A0" stroke="black" stroke-width="3"/>
<circle cx="1119.5" cy="578.5" r="10" fill="#A0A0A0" stroke="black" stroke-width="3"/>
<path d="M1196.49 512.186L1195.99 513.602L1196.49 512.186C1192.31 510.72 1187.8 510.458 1183.48 511.432L1159.65 516.802C1155.85 517.659 1152.24 519.214 1149 521.388L1125.98 536.865C1123.94 538.23 1122.23 540.013 1120.94 542.094L1119.8 543.941C1115.24 551.335 1117.83 561.049 1125.47 565.188C1132.52 569.008 1141.33 566.66 1145.54 559.837L1147.2 557.142C1148.45 555.131 1150.13 553.43 1152.14 552.172L1158.98 547.871C1163.52 545.015 1168.78 543.5 1174.15 543.5H1178.71C1181.05 543.5 1183.38 543.886 1185.61 544.642L1191.97 546.809C1200.37 549.668 1209.56 545.623 1213.12 537.499C1217.12 528.392 1212.52 517.811 1203.13 514.518L1196.49 512.186Z" fill="#A0A0A0" stroke="black" stroke-width="3" stroke-linecap="round" stroke-linejoin="round"/>
<circle cx="980" cy="578" r="21.5" fill="#A0A0A0" stroke="black" stroke-width="3"/>
<circle cx="1031.5" cy="578.5" r="10" fill="#A0A0A0" stroke="black" stroke-width="3"/>
<circle cx="929.5" cy="578.5" r="10" fill="#A0A0A0" stroke="black" stroke-width="3"/>
<path d="M1006.49 512.186L1005.99 513.602L1006.49 512.186C1002.31 510.72 997.799 510.458 993.478 511.432L969.649 516.802C965.847 517.659 962.237 519.214 959.002 521.388L935.975 536.865C933.945 538.23 932.229 540.013 930.943 542.094L929.803 543.941C925.236 551.335 927.825 561.049 935.468 565.188C942.519 569.008 951.326 566.66 955.54 559.837L957.204 557.142C958.447 555.131 960.134 553.43 962.136 552.172L968.979 547.871C973.522 545.015 978.779 543.5 984.146 543.5H988.708C991.054 543.5 993.385 543.886 995.606 544.642L1001.97 546.809C1010.37 549.668 1019.56 545.623 1023.12 537.499C1027.12 528.392 1022.52 517.811 1013.13 514.518L1006.49 512.186Z" fill="#A0A0A0" stroke="black" stroke-width="3" stroke-linecap="round" stroke-linejoin="round"/>
<circle cx="1075" cy="788" r="21.5" fill="#A0A0A0" stroke="black" stroke-width="3"/>
<circle cx="1126.5" cy="788.5" r="10" fill="#A0A0A0" stroke="black" stroke-width="3"/>
<circle cx="1024.5" cy="788.5" r="10" fill="#A0A0A0" stroke="black" stroke-width="3"/>
<path d="M1101.49 722.186L1100.99 723.602L1101.49 722.186C1097.31 720.72 1092.8 720.458 1088.48 721.432L1064.65 726.802C1060.85 727.659 1057.24 729.214 1054 731.388L1030.98 746.865C1028.94 748.23 1027.23 750.013 1025.94 752.094L1024.8 753.941C1020.24 761.335 1022.83 771.049 1030.47 775.188C1037.52 779.008 1046.33 776.66 1050.54 769.837L1052.2 767.142C1053.45 765.131 1055.13 763.43 1057.14 762.172L1063.98 757.871C1068.52 755.015 1073.78 753.5 1079.15 753.5H1083.71C1086.05 753.5 1088.38 753.886 1090.61 754.642L1096.97 756.809C1105.37 759.668 1114.56 755.623 1118.12 747.499C1122.12 738.392 1117.52 727.811 1108.13 724.518L1101.49 722.186Z" fill="#A0A0A0" stroke="black" stroke-width="3" stroke-linecap="round" stroke-linejoin="round"/>
<g clip-path="url(#clip0)">
<circle cx="542.701" cy="511.35" r="21.5" transform="rotate(45 542.701 511.35)" fill="#A0A0A0" stroke="black" stroke-width="3"/>
<circle cx="578.763" cy="548.12" r="10" transform="rotate(45 578.763 548.12)" fill="#A0A0A0" stroke="black" stroke-width="3"/>
<circle cx="506.638" cy="475.995" r="10" transform="rotate(45 506.638 475.995)" fill="#A0A0A0" stroke="black" stroke-width="3"/>
<path d="M607.967 483.541L606.615 484.191L607.967 483.541C606.048 479.549 603.046 476.177 599.302 473.81L578.655 460.758C575.361 458.675 571.709 457.222 567.884 456.472L540.657 451.133C538.257 450.663 535.783 450.71 533.402 451.273L531.29 451.772C522.832 453.771 517.794 462.471 520.271 470.802C522.556 478.489 530.444 483.056 538.248 481.212L541.33 480.483C543.632 479.939 546.027 479.93 548.332 480.455L556.212 482.253C561.444 483.446 566.233 486.092 570.027 489.886L573.254 493.113C574.913 494.772 576.288 496.693 577.324 498.798L580.293 504.831C584.209 512.791 593.566 516.428 601.83 513.203C611.095 509.588 615.325 498.854 611.018 489.89L607.967 483.541Z" fill="#A0A0A0" stroke="black" stroke-width="3" stroke-linecap="round" stroke-linejoin="round"/>
</g>
<g clip-path="url(#clip1)">
<circle cx="485.525" cy="722.876" r="21.5" transform="rotate(45 485.525 722.876)" fill="#A0A0A0" stroke="black" stroke-width="3"/>
<circle cx="521.588" cy="759.645" r="10" transform="rotate(45 521.588 759.645)" fill="#A0A0A0" stroke="black" stroke-width="3"/>
<circle cx="449.463" cy="687.52" r="10" transform="rotate(45 449.463 687.52)" fill="#A0A0A0" stroke="black" stroke-width="3"/>
<path d="M550.792 695.067L549.44 695.716L550.792 695.067C548.873 691.074 545.871 687.702 542.127 685.335L521.48 672.283C518.185 670.2 514.533 668.747 510.709 667.997L483.482 662.658C481.081 662.188 478.608 662.235 476.227 662.798L474.115 663.297C465.656 665.297 460.619 673.996 463.096 682.327C465.381 690.014 473.269 694.581 481.073 692.737L484.155 692.008C486.456 691.464 488.852 691.455 491.157 691.981L499.037 693.778C504.269 694.971 509.058 697.617 512.852 701.412L516.078 704.638C517.738 706.297 519.113 708.218 520.149 710.323L523.117 716.356C527.034 724.316 536.391 727.953 544.655 724.728C553.92 721.113 558.149 710.379 553.842 701.415L550.792 695.067Z" fill="#A0A0A0" stroke="black" stroke-width="3" stroke-linecap="round" stroke-linejoin="round"/>
</g>
<circle cx="639.876" cy="837.226" r="21.5" transform="rotate(45 639.876 837.226)" fill="#A0A0A0" stroke="black" stroke-width="3"/>
<circle cx="675.938" cy="873.995" r="10" transform="rotate(45 675.938 873.995)" fill="#A0A0A0" stroke="black" stroke-width="3"/>
<circle cx="603.813" cy="801.87" r="10" transform="rotate(45 603.813 801.87)" fill="#A0A0A0" stroke="black" stroke-width="3"/>
<path d="M705.142 809.417L703.79 810.066L705.142 809.417C703.224 805.424 700.221 802.052 696.477 799.685L675.83 786.633C672.536 784.55 668.884 783.097 665.059 782.347L637.833 777.009C635.432 776.538 632.958 776.585 630.577 777.148L628.465 777.647C620.007 779.647 614.969 788.346 617.446 796.677C619.732 804.364 627.619 808.931 635.424 807.087L638.506 806.358C640.807 805.814 643.202 805.805 645.508 806.331L653.387 808.128C658.619 809.321 663.408 811.967 667.203 815.762L670.429 818.988C672.088 820.647 673.463 822.568 674.499 824.673L677.468 830.706C681.384 838.666 690.742 842.303 699.006 839.078C708.27 835.463 712.5 824.729 708.193 815.765L705.142 809.417Z" fill="#A0A0A0" stroke="black" stroke-width="3" stroke-linecap="round" stroke-linejoin="round"/>
<circle cx="754.226" cy="991.576" r="21.5" transform="rotate(45 754.226 991.576)" fill="#A0A0A0" stroke="black" stroke-width="3"/>
<circle cx="790.289" cy="1028.35" r="10" transform="rotate(45 790.289 1028.35)" fill="#A0A0A0" stroke="black" stroke-width="3"/>
<circle cx="718.164" cy="956.221" r="10" transform="rotate(45 718.164 956.221)" fill="#A0A0A0" stroke="black" stroke-width="3"/>
<path d="M819.492 963.767L818.14 964.417L819.492 963.767C817.574 959.775 814.571 956.403 810.827 954.036L790.181 940.983C786.886 938.901 783.234 937.448 779.409 936.698L752.183 931.359C749.782 930.888 747.308 930.936 744.927 931.499L742.815 931.998C734.357 933.997 729.32 942.697 731.796 951.028C734.082 958.715 741.969 963.282 749.774 961.437L752.856 960.709C755.157 960.165 757.552 960.155 759.858 960.681L767.738 962.478C772.969 963.672 777.758 966.318 781.553 970.112L784.779 973.339C786.438 974.998 787.813 976.918 788.849 979.024L791.818 985.057C795.735 993.016 805.092 996.654 813.356 993.429C822.62 989.813 826.85 979.08 822.543 970.116L819.492 963.767Z" fill="#A0A0A0" stroke="black" stroke-width="3" stroke-linecap="round" stroke-linejoin="round"/>
<g clip-path="url(#clip2)">
<circle cx="707.051" cy="635.7" r="21.5" transform="rotate(45 707.051 635.7)" fill="#A0A0A0" stroke="black" stroke-width="3"/>
<circle cx="743.113" cy="672.47" r="10" transform="rotate(45 743.113 672.47)" fill="#A0A0A0" stroke="black" stroke-width="3"/>
<circle cx="670.988" cy="600.345" r="10" transform="rotate(45 670.988 600.345)" fill="#A0A0A0" stroke="black" stroke-width="3"/>
<path d="M772.317 607.891L770.965 608.541L772.317 607.891C770.399 603.899 767.396 600.527 763.652 598.16L743.005 585.107C739.711 583.025 736.059 581.572 732.234 580.822L705.007 575.483C702.607 575.012 700.133 575.06 697.752 575.623L695.64 576.122C687.182 578.121 682.144 586.821 684.621 595.152C686.906 602.839 694.794 607.406 702.598 605.561L705.681 604.833C707.982 604.289 710.377 604.279 712.683 604.805L720.562 606.602C725.794 607.796 730.583 610.442 734.378 614.236L737.604 617.463C739.263 619.122 740.638 621.042 741.674 623.148L744.643 629.181C748.559 637.141 757.917 640.778 766.181 637.553C775.445 633.937 779.675 623.204 775.368 614.24L772.317 607.891Z" fill="#A0A0A0" stroke="black" stroke-width="3" stroke-linecap="round" stroke-linejoin="round"/>
</g>
<circle cx="841.401" cy="770.051" r="21.5" transform="rotate(45 841.401 770.051)" fill="#A0A0A0" stroke="black" stroke-width="3"/>
<circle cx="877.464" cy="806.821" r="10" transform="rotate(45 877.464 806.821)" fill="#A0A0A0" stroke="black" stroke-width="3"/>
<circle cx="805.339" cy="734.696" r="10" transform="rotate(45 805.339 734.696)" fill="#A0A0A0" stroke="black" stroke-width="3"/>
<path d="M906.668 742.242L905.315 742.892L906.668 742.242C904.749 738.25 901.746 734.877 898.003 732.511L877.356 719.458C874.061 717.375 870.409 715.922 866.585 715.172L839.358 709.834C836.957 709.363 834.483 709.411 832.103 709.973L829.991 710.473C821.532 712.472 816.495 721.171 818.972 729.503C821.257 737.189 829.145 741.757 836.949 739.912L840.031 739.183C842.332 738.639 844.728 738.63 847.033 739.156L854.913 740.953C860.145 742.146 864.934 744.792 868.728 748.587L871.954 751.813C873.613 753.472 874.989 755.393 876.025 757.498L878.993 763.532C882.91 771.491 892.267 775.128 900.531 771.903C909.795 768.288 914.025 757.554 909.718 748.591L906.668 742.242Z" fill="#A0A0A0" stroke="black" stroke-width="3" stroke-linecap="round" stroke-linejoin="round"/>
<g clip-path="url(#clip3)">
<circle cx="1308.53" cy="770.051" r="21.5" transform="rotate(-45 1308.53 770.051)" fill="#A0A0A0" stroke="black" stroke-width="3"/>
<circle cx="1345.3" cy="733.988" r="10" transform="rotate(-45 1345.3 733.988)" fill="#A0A0A0" stroke="black" stroke-width="3"/>
<circle cx="1273.17" cy="806.113" r="10" transform="rotate(-45 1273.17 806.113)" fill="#A0A0A0" stroke="black" stroke-width="3"/>
<path d="M1280.72 704.785L1281.37 706.137L1280.72 704.785C1276.72 706.703 1273.35 709.706 1270.99 713.45L1257.93 734.096C1255.85 737.391 1254.4 741.043 1253.65 744.868L1248.31 772.094C1247.84 774.495 1247.89 776.969 1248.45 779.35L1248.95 781.462C1250.95 789.92 1259.65 794.957 1267.98 792.481C1275.66 790.195 1280.23 782.308 1278.39 774.503L1277.66 771.421C1277.11 769.12 1277.1 766.724 1277.63 764.419L1279.43 756.539C1280.62 751.307 1283.27 746.519 1287.06 742.724L1290.29 739.498C1291.95 737.839 1293.87 736.464 1295.97 735.428L1302.01 732.459C1309.97 728.542 1313.6 719.185 1310.38 710.921C1306.76 701.657 1296.03 697.427 1287.07 701.734L1280.72 704.785Z" fill="#A0A0A0" stroke="black" stroke-width="3" stroke-linecap="round" stroke-linejoin="round"/>
</g>
<circle cx="1395.7" cy="991.576" r="21.5" transform="rotate(-45 1395.7 991.576)" fill="#A0A0A0" stroke="black" stroke-width="3"/>
<circle cx="1432.47" cy="955.514" r="10" transform="rotate(-45 1432.47 955.514)" fill="#A0A0A0" stroke="black" stroke-width="3"/>
<circle cx="1360.35" cy="1027.64" r="10" transform="rotate(-45 1360.35 1027.64)" fill="#A0A0A0" stroke="black" stroke-width="3"/>
<path d="M1367.89 926.31L1368.54 927.662L1367.89 926.31C1363.9 928.228 1360.53 931.231 1358.16 934.975L1345.11 955.622C1343.02 958.916 1341.57 962.568 1340.82 966.393L1335.48 993.619C1335.01 996.02 1335.06 998.494 1335.62 1000.88L1336.12 1002.99C1338.12 1011.45 1346.82 1016.48 1355.15 1014.01C1362.84 1011.72 1367.41 1003.83 1365.56 996.029L1364.83 992.946C1364.29 990.645 1364.28 988.25 1364.81 985.944L1366.6 978.065C1367.8 972.833 1370.44 968.044 1374.24 964.249L1377.46 961.023C1379.12 959.364 1381.04 957.989 1383.15 956.953L1389.18 953.984C1397.14 950.068 1400.78 940.71 1397.55 932.446C1393.94 923.182 1383.2 918.952 1374.24 923.259L1367.89 926.31Z" fill="#A0A0A0" stroke="black" stroke-width="3" stroke-linecap="round" stroke-linejoin="round"/>
<circle cx="1510.05" cy="837.226" r="21.5" transform="rotate(-45 1510.05 837.226)" fill="#A0A0A0" stroke="black" stroke-width="3"/>
<circle cx="1546.82" cy="801.164" r="10" transform="rotate(-45 1546.82 801.164)" fill="#A0A0A0" stroke="black" stroke-width="3"/>
<circle cx="1474.7" cy="873.289" r="10" transform="rotate(-45 1474.7 873.289)" fill="#A0A0A0" stroke="black" stroke-width="3"/>
<path d="M1482.24 771.96L1482.89 773.312L1482.24 771.96C1478.25 773.878 1474.88 776.881 1472.51 780.625L1459.46 801.272C1457.38 804.566 1455.92 808.218 1455.17 812.043L1449.83 839.269C1449.36 841.67 1449.41 844.144 1449.97 846.525L1450.47 848.637C1452.47 857.095 1461.17 862.133 1469.5 859.656C1477.19 857.37 1481.76 849.483 1479.91 841.678L1479.18 838.596C1478.64 836.295 1478.63 833.9 1479.16 831.594L1480.95 823.715C1482.15 818.483 1484.79 813.694 1488.59 809.899L1491.81 806.673C1493.47 805.014 1495.39 803.639 1497.5 802.603L1503.53 799.634C1511.49 795.718 1515.13 786.36 1511.9 778.096C1508.29 768.832 1497.55 764.602 1488.59 768.909L1482.24 771.96Z" fill="#A0A0A0" stroke="black" stroke-width="3" stroke-linecap="round" stroke-linejoin="round"/>
<circle cx="1664.4" cy="722.875" r="21.5" transform="rotate(-45 1664.4 722.875)" fill="#A0A0A0" stroke="black" stroke-width="3"/>
<circle cx="1701.17" cy="686.813" r="10" transform="rotate(-45 1701.17 686.813)" fill="#A0A0A0" stroke="black" stroke-width="3"/>
<circle cx="1629.05" cy="758.938" r="10" transform="rotate(-45 1629.05 758.938)" fill="#A0A0A0" stroke="black" stroke-width="3"/>
<path d="M1636.59 657.609L1637.24 658.961L1636.59 657.609C1632.6 659.528 1629.23 662.53 1626.86 666.274L1613.81 686.921C1611.73 690.215 1610.27 693.868 1609.52 697.692L1604.18 724.919C1603.71 727.32 1603.76 729.793 1604.32 732.174L1604.82 734.286C1606.82 742.745 1615.52 747.782 1623.85 745.305C1631.54 743.02 1636.11 735.132 1634.26 727.328L1633.53 724.246C1632.99 721.944 1632.98 719.549 1633.51 717.244L1635.3 709.364C1636.5 704.132 1639.14 699.343 1642.94 695.549L1646.16 692.323C1647.82 690.663 1649.74 689.288 1651.85 688.252L1657.88 685.284C1665.84 681.367 1669.48 672.01 1666.25 663.746C1662.64 654.481 1651.9 650.251 1642.94 654.559L1636.59 657.609Z" fill="#A0A0A0" stroke="black" stroke-width="3" stroke-linecap="round" stroke-linejoin="round"/>
<g clip-path="url(#clip4)">
<circle cx="1442.88" cy="635.701" r="21.5" transform="rotate(-45 1442.88 635.701)" fill="#A0A0A0" stroke="black" stroke-width="3"/>
<circle cx="1479.65" cy="599.638" r="10" transform="rotate(-45 1479.65 599.638)" fill="#A0A0A0" stroke="black" stroke-width="3"/>
<circle cx="1407.52" cy="671.763" r="10" transform="rotate(-45 1407.52 671.763)" fill="#A0A0A0" stroke="black" stroke-width="3"/>
<path d="M1415.07 570.435L1415.72 571.787L1415.07 570.435C1411.07 572.353 1407.7 575.356 1405.34 579.099L1392.28 599.746C1390.2 603.041 1388.75 606.693 1388 610.517L1382.66 637.744C1382.19 640.145 1382.24 642.619 1382.8 645L1383.3 647.111C1385.3 655.57 1394 660.607 1402.33 658.13C1410.01 655.845 1414.58 647.958 1412.74 640.153L1412.01 637.071C1411.46 634.77 1411.45 632.374 1411.98 630.069L1413.78 622.189C1414.97 616.957 1417.62 612.168 1421.41 608.374L1424.64 605.148C1426.3 603.489 1428.22 602.113 1430.32 601.077L1436.36 598.109C1444.32 594.192 1447.95 584.835 1444.73 576.571C1441.11 567.307 1430.38 563.077 1421.42 567.384L1415.07 570.435Z" fill="#A0A0A0" stroke="black" stroke-width="3" stroke-linecap="round" stroke-linejoin="round"/>
</g>
<g clip-path="url(#clip5)">
<circle cx="1607.23" cy="511.351" r="21.5" transform="rotate(-45 1607.23 511.351)" fill="#A0A0A0" stroke="black" stroke-width="3"/>
<circle cx="1644" cy="475.288" r="10" transform="rotate(-45 1644 475.288)" fill="#A0A0A0" stroke="black" stroke-width="3"/>
<circle cx="1571.87" cy="547.413" r="10" transform="rotate(-45 1571.87 547.413)" fill="#A0A0A0" stroke="black" stroke-width="3"/>
<path d="M1579.42 446.084L1580.07 447.436L1579.42 446.084C1575.42 448.003 1572.05 451.005 1569.69 454.749L1556.63 475.396C1554.55 478.69 1553.1 482.343 1552.35 486.167L1547.01 513.394C1546.54 515.795 1546.59 518.268 1547.15 520.649L1547.65 522.761C1549.65 531.22 1558.35 536.257 1566.68 533.78C1574.36 531.495 1578.93 523.607 1577.09 515.803L1576.36 512.721C1575.81 510.42 1575.8 508.024 1576.33 505.719L1578.13 497.839C1579.32 492.607 1581.97 487.818 1585.76 484.024L1588.99 480.798C1590.65 479.138 1592.57 477.763 1594.67 476.727L1600.71 473.759C1608.67 469.842 1612.3 460.485 1609.08 452.221C1605.46 442.956 1594.73 438.727 1585.77 443.034L1579.42 446.084Z" fill="#A0A0A0" stroke="black" stroke-width="3" stroke-linecap="round" stroke-linejoin="round"/>
</g>
<circle cx="1282" cy="1086" r="14.5" fill="#07B5FF" stroke="black"/>
<circle cx="866" cy="1086" r="14.5" fill="#07B5FF" stroke="black"/>
<circle cx="356" cy="1116" r="14.5" fill="#07B5FF" stroke="black"/>
<circle cx="1795" cy="1116" r="14.5" fill="#07B5FF" stroke="black"/>
<circle cx="1768" cy="593" r="14.5" fill="#07B5FF" stroke="black"/>
<circle cx="383" cy="593" r="14.5" fill="#07B5FF" stroke="black"/>
<circle cx="678" cy="343" r="14.5" fill="#07B5FF" stroke="black"/>
<rect width="64" height="463" rx="10" transform="matrix(0 -1 -1 0 1215 456.213)" fill="#A0A0A0" stroke="black"/>
<rect width="64" height="364" rx="10" transform="matrix(0 -1 -1 0 1116 290.213)" fill="#A0A0A0" stroke="black"/>
<defs>
<clipPath id="clip0">
<rect width="190" height="190" fill="white" transform="translate(542.701 377) rotate(45)"/>
</clipPath>
<clipPath id="clip1">
<rect width="190" height="190" fill="white" transform="translate(485.525 588.525) rotate(45)"/>
</clipPath>
<clipPath id="clip2">
<rect width="190" height="190" fill="white" transform="translate(707.051 501.35) rotate(45)"/>
</clipPath>
<clipPath id="clip3">
<rect width="190" height="190" fill="white" transform="translate(1174.18 770.051) rotate(-45)"/>
</clipPath>
<clipPath id="clip4">
<rect width="190" height="190" fill="white" transform="translate(1308.53 635.701) rotate(-45)"/>
</clipPath>
<clipPath id="clip5">
<rect width="190" height="190" fill="white" transform="translate(1472.88 511.351) rotate(-45)"/>
</clipPath>
</defs>
</svg>
