<svg width="2150" height="1664" viewBox="0 0 2150 1664" fill="none" xmlns="http://www.w3.org/2000/svg">
<rect width="2100" height="1500" rx="100" transform="matrix(-1 0 0 1 2125 64)" fill="white" stroke="black"/>
<path opacity="0.8" d="M836 222C836 194.386 858.386 172 886 172H1378.53C1421.06 172 1462.5 185.563 1496.8 210.719L1595.27 282.932C1604.41 289.632 1612.96 297.096 1620.83 305.244L1774.32 464.102C1797.09 487.672 1813.72 516.479 1822.75 547.986L2012.05 1208.71C2015.33 1220.18 2017 1232.05 2017 1243.99V1243.99C2017 1278.52 2003.05 1311.6 1978.32 1335.7L1890.51 1421.29C1870.31 1440.98 1843.21 1452 1815 1452V1452C1786.79 1452 1759.69 1440.98 1739.49 1421.29L1594.45 1279.95C1581.71 1267.54 1565.9 1258.75 1548.64 1254.49L1373.39 1211.19C1341.61 1203.34 1308.41 1217.01 1291.37 1244.96L1274.23 1273.06C1256.08 1302.83 1223.72 1321 1188.85 1321H962.336C926.824 1321 893.975 1302.17 876.035 1271.52L861.257 1246.27C844.493 1217.63 810.903 1203.42 778.674 1211.32L602.334 1254.54C585.089 1258.77 569.281 1267.51 556.534 1279.87L410.53 1421.43C390.308 1441.04 363.249 1452 335.083 1452V1452C306.819 1452 279.672 1440.96 259.431 1421.23L171.681 1335.7C146.948 1311.6 133 1278.52 133 1243.99V1243.99C133 1232.05 134.667 1220.18 137.953 1208.71L327.325 547.73C336.305 516.386 352.813 487.712 375.41 464.207L508.135 326.146C526.149 307.408 555.516 305.597 575.695 321.98L728.226 445.817C737.137 453.052 748.264 457 759.742 457H786C813.614 457 836 434.614 836 407V222Z" fill="#E89595" stroke="black"/>
<path fill-rule="evenodd" clip-rule="evenodd" d="M1159 954H960V1160H1133H1159H1176V1118H1159V1038H1176V970H1159V954Z" fill="#C4C4C4"/>
<path d="M960 954H959.5V953.5H960V954ZM1159 954V953.5H1159.5V954H1159ZM960 1160V1160.5H959.5V1160H960ZM1176 1160H1176.5V1160.5H1176V1160ZM1176 1118V1117.5H1176.5V1118H1176ZM1159 1118V1118.5H1158.5V1118H1159ZM1159 1038H1158.5V1037.5H1159V1038ZM1176 1038H1176.5V1038.5H1176V1038ZM1176 970V969.5H1176.5V970H1176ZM1159 970V970.5H1158.5V970H1159ZM960 953.5H1159V954.5H960V953.5ZM959.5 1160V954H960.5V1160H959.5ZM1133 1160.5H960V1159.5H1133V1160.5ZM1159 1160.5H1133V1159.5H1159V1160.5ZM1176 1160.5H1159V1159.5H1176V1160.5ZM1176.5 1118V1160H1175.5V1118H1176.5ZM1159 1117.5H1176V1118.5H1159V1117.5ZM1159.5 1038V1118H1158.5V1038H1159.5ZM1159 1037.5H1176V1038.5H1159V1037.5ZM1175.5 1038V970H1176.5V1038H1175.5ZM1176 970.5H1159V969.5H1176V970.5ZM1159.5 954V970H1158.5V954H1159.5Z" fill="black"/>
<path d="M1050 518.011L1058 518.011L1058 549.011H1050L1050 607.009H1058L1058 638.009H1050L1050 648.008H909.999V638.009H901.994V607.009L909.999 607.009V549.011L901.994 549.011L901.994 518.011L909.992 518.004V508.005L1050 508.005L1050 518.011Z" fill="#C4C4C4" stroke="black"/>
<path d="M1240 518.011L1248 518.011L1248 549.011H1240L1240 607.009H1248L1248 638.009H1240L1240 648.008H1100V638.009H1091.99V607.009L1100 607.009V549.011L1091.99 549.011L1091.99 518.011L1099.99 518.004V508.005L1240 508.005L1240 518.011Z" fill="#C4C4C4" stroke="black"/>
<path d="M1145 728.011L1153 728.011L1153 759.011H1145L1145 817.009H1153L1153 848.009H1145L1145 858.008H1005V848.009H996.994V817.009L1005 817.009V759.011L996.994 759.011L996.994 728.011L1004.99 728.004V718.005L1145 718.005L1145 728.011Z" fill="#C4C4C4" stroke="black"/>
<g clip-path="url(#clip0)">
<path d="M1614.37 419.438L1620.03 413.778L1641.96 435.698L1636.29 441.358L1677.31 482.369L1682.97 476.709L1704.89 498.629L1699.23 504.289L1706.3 511.36L1607.3 610.352L1600.23 603.282L1594.57 608.942L1572.65 587.021L1578.31 581.361L1537.3 540.35L1531.64 546.01L1509.72 524.09L1515.37 518.43L1508.3 511.36L1607.3 412.358L1614.37 419.438Z" fill="#C4C4C4" stroke="black"/>
</g>
<g clip-path="url(#clip1)">
<path d="M1671.55 630.963L1677.21 625.303L1699.13 647.223L1693.47 652.883L1734.48 693.894L1740.14 688.234L1762.06 710.154L1756.4 715.815L1763.47 722.885L1664.48 821.877L1657.41 814.807L1651.75 820.467L1629.83 798.546L1635.49 792.886L1594.48 751.875L1588.82 757.535L1566.9 735.615L1572.55 729.955L1565.48 722.885L1664.48 623.883L1671.55 630.963Z" fill="#C4C4C4" stroke="black"/>
</g>
<g clip-path="url(#clip2)">
<path d="M1517.2 745.313L1522.86 739.653L1544.78 761.573L1539.12 767.233L1580.13 808.244L1585.79 802.584L1607.71 824.505L1602.05 830.165L1609.12 837.235L1510.13 936.227L1503.06 929.157L1497.4 934.817L1475.48 912.896L1481.14 907.236L1440.13 866.225L1434.47 871.886L1412.55 849.965L1418.2 844.305L1411.13 837.235L1510.13 738.233L1517.2 745.313Z" fill="#C4C4C4" stroke="black"/>
</g>
<g clip-path="url(#clip3)">
<path d="M1402.85 899.663L1408.51 894.003L1430.43 915.924L1424.77 921.584L1465.78 962.595L1471.44 956.935L1493.36 978.855L1487.7 984.515L1494.77 991.585L1395.78 1090.58L1388.71 1083.51L1383.05 1089.17L1361.13 1067.25L1366.79 1061.59L1325.78 1020.58L1320.12 1026.24L1298.2 1004.32L1303.85 998.656L1296.78 991.585L1395.78 892.583L1402.85 899.663Z" fill="#C4C4C4" stroke="black"/>
</g>
<g clip-path="url(#clip4)">
<path d="M1450.02 543.788L1455.68 538.127L1477.6 560.048L1471.94 565.708L1512.96 606.719L1518.62 601.059L1540.54 622.979L1534.88 628.639L1541.95 635.709L1442.95 734.702L1435.88 727.631L1430.22 733.292L1408.3 711.371L1413.96 705.711L1372.95 664.7L1367.29 670.36L1345.37 648.44L1351.02 642.78L1343.95 635.709L1442.95 536.707L1450.02 543.788Z" fill="#C4C4C4" stroke="black"/>
</g>
<g clip-path="url(#clip5)">
<path d="M1315.67 678.138L1321.33 672.478L1343.25 694.398L1337.59 700.059L1378.61 741.069L1384.27 735.409L1406.19 757.33L1400.53 762.99L1407.6 770.06L1308.6 869.052L1301.53 861.982L1295.87 867.642L1273.95 845.722L1279.61 840.061L1238.6 799.051L1232.94 804.711L1211.02 782.79L1216.67 777.13L1209.6 770.06L1308.6 671.058L1315.67 678.138Z" fill="#C4C4C4" stroke="black"/>
</g>
<g clip-path="url(#clip6)">
<path d="M933.387 777.126L939.047 782.786L917.127 804.707L911.467 799.046L870.456 840.057L876.116 845.717L854.196 867.638L848.535 861.978L841.465 869.048L742.473 770.056L749.543 762.986L743.883 757.326L765.804 735.405L771.464 741.065L812.475 700.054L806.815 694.394L828.735 672.474L834.395 678.124L841.465 671.054L940.467 770.056L933.387 777.126Z" fill="#C4C4C4" stroke="black"/>
</g>
<g clip-path="url(#clip7)">
<path d="M846.212 998.651L851.872 1004.31L829.952 1026.23L824.292 1020.57L783.281 1061.58L788.941 1067.24L767.02 1089.16L761.36 1083.5L754.29 1090.57L655.298 991.581L662.368 984.511L656.708 978.851L678.629 956.93L684.289 962.591L725.3 921.58L719.639 915.92L741.56 893.999L747.22 899.649L754.29 892.579L853.292 991.581L846.212 998.651Z" fill="#C4C4C4" stroke="black"/>
</g>
<g clip-path="url(#clip8)">
<path d="M731.862 844.301L737.522 849.961L715.601 871.882L709.941 866.222L668.93 907.233L674.591 912.893L652.67 934.813L647.01 929.153L639.94 936.223L540.948 837.231L548.018 830.161L542.358 824.501L564.278 802.58L569.938 808.24L610.949 767.23L605.289 761.57L627.21 739.649L632.87 745.299L639.94 738.229L738.942 837.231L731.862 844.301Z" fill="#C4C4C4" stroke="black"/>
</g>
<g clip-path="url(#clip9)">
<path d="M577.512 729.951L583.172 735.611L561.251 757.531L555.591 751.871L514.58 792.882L520.24 798.542L498.32 820.463L492.66 814.802L485.59 821.873L386.598 722.881L393.668 715.81L388.008 710.15L409.928 688.23L415.588 693.89L456.599 652.879L450.939 647.219L472.859 625.298L478.52 630.949L485.59 623.878L584.592 722.881L577.512 729.951Z" fill="#C4C4C4" stroke="black"/>
</g>
<g clip-path="url(#clip10)">
<path d="M799.037 642.776L804.697 648.436L782.777 670.356L777.116 664.696L736.106 705.707L741.766 711.367L719.845 733.288L714.185 727.628L707.115 734.698L608.123 635.706L615.193 628.636L609.533 622.975L631.453 601.055L637.114 606.715L678.124 565.704L672.464 560.044L694.385 538.124L700.045 543.774L707.115 536.704L806.117 635.706L799.037 642.776Z" fill="#C4C4C4" stroke="black"/>
</g>
<g clip-path="url(#clip11)">
<path d="M634.687 518.426L640.347 524.086L618.426 546.006L612.766 540.346L571.755 581.357L577.415 587.017L555.495 608.938L549.835 603.278L542.765 610.348L443.773 511.356L450.843 504.285L445.183 498.625L467.103 476.705L472.763 482.365L513.774 441.354L508.114 435.694L530.034 413.774L535.695 419.424L542.765 412.354L641.767 511.356L634.687 518.426Z" fill="#C4C4C4" stroke="black"/>
</g>
<circle r="14.5" transform="matrix(-1 0 0 1 382 593)" fill="#07B5FF" stroke="black"/>
<circle r="14.5" transform="matrix(-1 0 0 1 1767 593)" fill="#07B5FF" stroke="black"/>
<defs>
<clipPath id="clip0">
<rect width="190" height="190" fill="white" transform="matrix(-0.707107 0.707107 0.707107 0.707107 1607.3 377)"/>
</clipPath>
<clipPath id="clip1">
<rect width="190" height="190" fill="white" transform="matrix(-0.707107 0.707107 0.707107 0.707107 1664.47 588.525)"/>
</clipPath>
<clipPath id="clip2">
<rect width="190" height="190" fill="white" transform="matrix(-0.707107 0.707107 0.707107 0.707107 1510.12 702.875)"/>
</clipPath>
<clipPath id="clip3">
<rect width="190" height="190" fill="white" transform="matrix(-0.707107 0.707107 0.707107 0.707107 1395.77 857.226)"/>
</clipPath>
<clipPath id="clip4">
<rect width="190" height="190" fill="white" transform="matrix(-0.707107 0.707107 0.707107 0.707107 1442.95 501.35)"/>
</clipPath>
<clipPath id="clip5">
<rect width="190" height="190" fill="white" transform="matrix(-0.707107 0.707107 0.707107 0.707107 1308.6 635.701)"/>
</clipPath>
<clipPath id="clip6">
<rect width="190" height="190" fill="white" transform="matrix(-0.707107 -0.707107 -0.707107 0.707107 975.825 770.051)"/>
</clipPath>
<clipPath id="clip7">
<rect width="190" height="190" fill="white" transform="matrix(-0.707107 -0.707107 -0.707107 0.707107 888.65 991.576)"/>
</clipPath>
<clipPath id="clip8">
<rect width="190" height="190" fill="white" transform="matrix(-0.707107 -0.707107 -0.707107 0.707107 774.299 837.226)"/>
</clipPath>
<clipPath id="clip9">
<rect width="190" height="190" fill="white" transform="matrix(-0.707107 -0.707107 -0.707107 0.707107 619.949 722.875)"/>
</clipPath>
<clipPath id="clip10">
<rect width="190" height="190" fill="white" transform="matrix(-0.707107 -0.707107 -0.707107 0.707107 841.475 635.701)"/>
</clipPath>
<clipPath id="clip11">
<rect width="190" height="190" fill="white" transform="matrix(-0.707107 -0.707107 -0.707107 0.707107 677.124 511.351)"/>
</clipPath>
</defs>
</svg>
